<?xml version="1.0" encoding="utf-8"?>
<!DOCTYPE svg PUBLIC "-//W3C//DTD SVG 20010904//EN" "http://www.w3.org/TR/2001/REC-SVG-20010904/DTD/svg10.dtd">
<svg version="1.0" width="768pt" height="768pt" viewBox="0 0 768 768" preserveAspectRatio="xMidYMid meet" xmlns="http://www.w3.org/2000/svg">
  <g transform="translate(0,768)scale(.075,.075)">
    <path id="path1" d="M 2545 -10224 c -654 59 -1091 213 -1523 536 -124 93 -376 345 -470 470 -325 435 -478 870 -536 1533 -22 250 -23 4874 -1 5125 54 614 176 996 450 1410 187 282 401 495 685 685 413 275 794 396 1420 451 221 20 4888 20 5102 0 631 -57 990 -171 1418 -451 158 -103 275 -201 411 -343 128 -134 188 -209 282 -353 266 -405 386 -785 442 -1397 23 -247 22 -4870 0 -5124 -52 -583 -157 -934 -399 -1331 -104 -171 -199 -290 -361 -452 -161 -162 -281 -257 -452 -361 -397 -242 -752 -348 -1333 -399 -151 -13 -501 -15 -2580 -14 -1936 1 -2434 4 -2555 15 z " />
    <path id="path2" d="M 5068 -9774 l 2 171 203 6 c 402 13 768 76 1142 197 1032 334 1916 1094 2404 2067 215 430 356 905 419 1408 27 219 24 764 -6 981 -66 488 -179 874 -378 1292 -213 447 -486 827 -853 1184 -238 232 -530 454 -811 616 -237 137 -567 281 -827 361 -410 126 -766 179 -1226 182 l -134 1 -6 431 c -7 461 -8 468 -56 452 l -22 -7 3 -438 3 -439 -47 -5 c -27 -3 -113 -13 -193 -21 -690 -71 -1401 -349 -1970 -770 -773 -571 -1316 -1378 -1554 -2307 -80 -312 -118 -592 -127 -936 -21 -756 163 -1502 534 -2157 78 -138 266 -415 374 -550 384 -481 885 -879 1440 -1144 434 -208 920 -343 1373 -381 188 -16 212 -20 223 -33 6 -7 12 -81 14 -165 3 -162 7 -175 53 -170 19 3 20 12 23 174 z " fill="#FFF" />
    <path id="path3" d="M 5088 -9244 c -9 3 -18 15 -21 27 -2 12 -5 193 -6 403 l -2 381 178 6 c 294 9 541 53 808 142 994 331 1736 1182 1940 2226 44 226 50 300 50 599 -1 313 -15 445 -75 695 -176 739 -622 1379 -1248 1788 -471 309 -986 465 -1547 468 l -155 1 0 251 c 0 139 -3 330 -7 425 l -6 172 131 0 c 691 0 1346 -179 1935 -529 270 -161 484 -328 725 -569 295 -293 504 -575 693 -936 326 -625 476 -1371 415 -2069 -35 -397 -112 -730 -252 -1084 -190 -481 -455 -890 -819 -1262 -694 -710 -1587 -1104 -2570 -1135 -83 -3 -157 -3 -167 0 z " />
    <path id="path4" d="M 4730 -9224 c -717 84 -1349 348 -1929 805 -134 106 -390 356 -512 499 -918 1082 -1159 2579 -628 3900 233 579 664 1154 1156 1543 571 452 1234 721 1966 799 98 10 110 10 125 -6 15 -15 17 -49 19 -314 2 -163 4 -345 5 -405 2 -59 2 -107 1 -107 -28 0 -310 -46 -396 -65 -935 -207 -1697 -861 -2063 -1771 -93 -233 -163 -510 -196 -774 -16 -134 -17 -553 0 -688 75 -620 317 -1170 719 -1634 337 -388 786 -687 1273 -846 204 -67 403 -110 598 -128 120 -11 111 24 118 -432 l 7 -392 -74 1 c -41 1 -126 7 -189 15 z " />
    <path id="path5" d="M 5082 -8174 c -12 3 -22 6 -23 7 0 1 -3 272 -6 603 l -5 601 128 6 c 468 21 894 246 1177 622 75 100 182 308 222 429 57 175 69 264 69 491 0 179 -3 224 -21 307 -108 481 -407 866 -835 1072 -205 99 -381 143 -615 155 -78 4 -144 9 -146 11 -2 3 -7 254 -10 559 l -6 554 202 -7 c 294 -9 510 -47 757 -131 219 -75 353 -138 536 -250 817 -500 1312 -1427 1280 -2397 -11 -334 -61 -593 -172 -896 -94 -255 -285 -581 -467 -797 -425 -505 -1024 -837 -1657 -919 -123 -16 -370 -28 -408 -20 z " />
    <path id="path6" d="M 4783 -8150 c -453 69 -848 237 -1218 519 -138 105 -383 352 -487 491 -517 688 -688 1535 -477 2358 128 499 377 927 750 1287 138 133 221 200 381 306 132 87 389 217 542 274 196 72 577 154 631 135 13 -5 22 -20 27 -46 3 -22 7 -250 7 -508 1 -259 4 -487 7 -508 4 -21 4 -38 1 -38 -3 0 -61 -11 -129 -25 -435 -86 -785 -322 -1015 -683 -108 -168 -175 -335 -215 -535 -32 -158 -32 -444 0 -593 136 -634 621 -1108 1251 -1220 80 -15 107 -24 116 -39 10 -15 15 -162 20 -605 l 7 -585 -38 -2 c -22 -1 -94 7 -161 17 z " />
    <path id="path7" d="M 4975 -6800 c -320 29 -615 169 -851 404 -209 210 -334 446 -389 736 -24 126 -25 350 -1 480 100 555 533 1001 1087 1118 113 24 153 27 329 26 353 -4 681 -144 940 -404 204 -203 329 -439 387 -726 24 -125 25 -388 0 -504 -59 -277 -177 -505 -361 -698 -239 -250 -530 -395 -868 -431 -105 -12 -150 -12 -273 -1 z " />
  </g>
</svg>